# xmcd
#
# Track frame offsets: 
#        150
#        20916
#        38767
#        63116
#        83304
#        103617
#        124624
#        147896
#        169369
#        195163
#        216982
#        237712
#        257210
#        280846
#
# Disc length: 3821 seconds
#
# Revision: 0
# Processed by: cddbd v1.5.2PL0 Copyright (c) Steve Scherf et al.
# Submitted via: ExactAudioCopy v1.0b3
#
DISCID=c40eeb0e
DTITLE=井手綾香 - atelier
DYEAR=2012
DGENRE=Pop
TTITLE0=風をつかまえて [sky blue]
TTITLE1=雲の向こう [cyan]
TTITLE2=ヒカリ
TTITLE3=きっと、ずっと
TTITLE4=震える瞳の下で
TTITLE5=輝く海
TTITLE6=どんなときも
TTITLE7=ひだり手
TTITLE8=あのね [garnet]
TTITLE9=少しずつ [maize]
TTITLE10=君からのメッセージ [poppy red]
TTITLE11=輝きの中で
TTITLE12=愛をつなごう [mauve]
TTITLE13=Voice (15秒 Version)
EXTD=
EXTT0=
EXTT1=
EXTT2=
EXTT3=
EXTT4=
EXTT5=
EXTT6=
EXTT7=
EXTT8=
EXTT9=
EXTT10=
EXTT11=
EXTT12=
EXTT13=
PLAYORDER=
